<svg xmlns="http://www.w3.org/2000/svg" viewBox="0 0 23 23">
  <defs>
    <style>
      .cls-1 {
        fill: none;
        stroke: #a5a5a5;
        fill-rule: evenodd;
      }
    </style>
  </defs>
  <path id="Chat" class="cls-1" d="M6.875,11A1.3,1.3,0,0,0,8.25,12.375h5.5A1.378,1.378,0,0,0,15.125,11,1.3,1.3,0,0,0,13.75,9.625H8.25A1.378,1.378,0,0,0,6.875,11ZM0,6.875A6.808,6.808,0,0,1,6.875,0h8.25A6.808,6.808,0,0,1,22,6.875v13.75A1.3,1.3,0,0,1,20.625,22H6.875A6.808,6.808,0,0,1,0,15.125Z" transform="translate(0.5 0.5)"/>
</svg>
